<mxfile host="app.diagrams.net" modified="2024-07-18T06:07:23.232Z" agent="Mozilla/5.0 (Windows NT 10.0; Win64; x64) AppleWebKit/537.36 (KHTML, like Gecko) Chrome/126.0.0.0 Safari/537.36" etag="NKYMAQSBk8XG1RbbcENt" version="24.7.1" type="device">
  <diagram name="Page-1" id="NHZiRjtUz1BNq5njOBpn">
    <mxGraphModel dx="2918" dy="1992" grid="1" gridSize="10" guides="1" tooltips="1" connect="1" arrows="1" fold="1" page="1" pageScale="1" pageWidth="850" pageHeight="1100" math="0" shadow="0">
      <root>
        <mxCell id="0" />
        <mxCell id="1" parent="0" />
        <mxCell id="EsA31SXm8HNPPJr8_wRz-92" style="edgeStyle=orthogonalEdgeStyle;rounded=0;orthogonalLoop=1;jettySize=auto;html=1;startArrow=classic;startFill=1;dashed=1;" parent="1" edge="1" source="EsA31SXm8HNPPJr8_wRz-2">
          <mxGeometry relative="1" as="geometry">
            <mxPoint x="-140" y="710" as="targetPoint" />
            <mxPoint x="170" y="80" as="sourcePoint" />
            <Array as="points">
              <mxPoint x="-140" y="80" />
            </Array>
          </mxGeometry>
        </mxCell>
        <mxCell id="EsA31SXm8HNPPJr8_wRz-1" value="Network Account" style="points=[[0,0],[0.25,0],[0.5,0],[0.75,0],[1,0],[1,0.25],[1,0.5],[1,0.75],[1,1],[0.75,1],[0.5,1],[0.25,1],[0,1],[0,0.75],[0,0.5],[0,0.25]];outlineConnect=0;gradientColor=none;html=1;whiteSpace=wrap;fontSize=12;fontStyle=0;container=1;pointerEvents=0;collapsible=0;recursiveResize=0;shape=mxgraph.aws4.group;grIcon=mxgraph.aws4.group_account;strokeColor=#CD2264;fillColor=none;verticalAlign=top;align=left;spacingLeft=30;fontColor=#CD2264;dashed=0;" parent="1" vertex="1">
          <mxGeometry x="160" y="-90" width="670" height="580" as="geometry" />
        </mxCell>
        <mxCell id="EsA31SXm8HNPPJr8_wRz-40" value="Internet&#xa;gateway" style="sketch=0;outlineConnect=0;fontColor=#232F3E;gradientColor=none;strokeColor=#232F3E;fillColor=#ffffff;dashed=0;verticalLabelPosition=bottom;verticalAlign=top;align=center;html=1;fontSize=12;fontStyle=0;aspect=fixed;shape=mxgraph.aws4.resourceIcon;resIcon=mxgraph.aws4.internet_gateway;" parent="EsA31SXm8HNPPJr8_wRz-1" vertex="1">
          <mxGeometry x="280" y="-30" width="60" height="60" as="geometry" />
        </mxCell>
        <mxCell id="EsA31SXm8HNPPJr8_wRz-2" value="&lt;font color=&quot;#053d2c&quot;&gt;Central VPC&lt;/font&gt;" style="points=[[0,0],[0.25,0],[0.5,0],[0.75,0],[1,0],[1,0.25],[1,0.5],[1,0.75],[1,1],[0.75,1],[0.5,1],[0.25,1],[0,1],[0,0.75],[0,0.5],[0,0.25]];outlineConnect=0;gradientColor=none;html=1;whiteSpace=wrap;fontSize=12;fontStyle=0;container=1;pointerEvents=0;collapsible=0;recursiveResize=0;shape=mxgraph.aws4.group;grIcon=mxgraph.aws4.group_vpc2;strokeColor=#8C4FFF;fillColor=none;verticalAlign=top;align=left;spacingLeft=30;fontColor=#AAB7B8;dashed=0;" parent="1" vertex="1">
          <mxGeometry x="180" y="-50" width="630" height="510" as="geometry" />
        </mxCell>
        <mxCell id="EsA31SXm8HNPPJr8_wRz-4" value="AZ-2" style="fillColor=none;strokeColor=#147EBA;dashed=1;verticalAlign=top;fontStyle=0;fontColor=#147EBA;whiteSpace=wrap;html=1;" parent="EsA31SXm8HNPPJr8_wRz-2" vertex="1">
          <mxGeometry x="310" y="40" width="270" height="420" as="geometry" />
        </mxCell>
        <mxCell id="EsA31SXm8HNPPJr8_wRz-6" value="AZ-2" style="fillColor=none;strokeColor=#147EBA;dashed=1;verticalAlign=top;fontStyle=0;fontColor=#147EBA;whiteSpace=wrap;html=1;" parent="EsA31SXm8HNPPJr8_wRz-2" vertex="1">
          <mxGeometry x="30" y="40" width="250" height="420" as="geometry" />
        </mxCell>
        <mxCell id="EsA31SXm8HNPPJr8_wRz-8" value="Public subnet-1" style="points=[[0,0],[0.25,0],[0.5,0],[0.75,0],[1,0],[1,0.25],[1,0.5],[1,0.75],[1,1],[0.75,1],[0.5,1],[0.25,1],[0,1],[0,0.75],[0,0.5],[0,0.25]];outlineConnect=0;gradientColor=none;html=1;whiteSpace=wrap;fontSize=12;fontStyle=0;container=1;pointerEvents=0;collapsible=0;recursiveResize=0;shape=mxgraph.aws4.group;grIcon=mxgraph.aws4.group_security_group;grStroke=0;strokeColor=#7AA116;fillColor=#F2F6E8;verticalAlign=top;align=left;spacingLeft=30;fontColor=#248814;dashed=0;" parent="EsA31SXm8HNPPJr8_wRz-2" vertex="1">
          <mxGeometry x="50" y="80" width="120" height="130" as="geometry" />
        </mxCell>
        <mxCell id="EsA31SXm8HNPPJr8_wRz-10" value="" style="outlineConnect=0;dashed=0;verticalLabelPosition=bottom;verticalAlign=top;align=center;html=1;shape=mxgraph.aws3.vpc_nat_gateway;fillColor=#F58534;gradientColor=none;" parent="EsA31SXm8HNPPJr8_wRz-8" vertex="1">
          <mxGeometry x="18" y="40" width="69" height="72" as="geometry" />
        </mxCell>
        <mxCell id="EsA31SXm8HNPPJr8_wRz-9" value="Public subnet-2" style="points=[[0,0],[0.25,0],[0.5,0],[0.75,0],[1,0],[1,0.25],[1,0.5],[1,0.75],[1,1],[0.75,1],[0.5,1],[0.25,1],[0,1],[0,0.75],[0,0.5],[0,0.25]];outlineConnect=0;gradientColor=none;html=1;whiteSpace=wrap;fontSize=12;fontStyle=0;container=1;pointerEvents=0;collapsible=0;recursiveResize=0;shape=mxgraph.aws4.group;grIcon=mxgraph.aws4.group_security_group;grStroke=0;strokeColor=#7AA116;fillColor=#F2F6E8;verticalAlign=top;align=left;spacingLeft=30;fontColor=#248814;dashed=0;" parent="EsA31SXm8HNPPJr8_wRz-2" vertex="1">
          <mxGeometry x="440" y="80" width="117.5" height="130" as="geometry" />
        </mxCell>
        <mxCell id="EsA31SXm8HNPPJr8_wRz-11" value="" style="outlineConnect=0;dashed=0;verticalLabelPosition=bottom;verticalAlign=top;align=center;html=1;shape=mxgraph.aws3.vpc_nat_gateway;fillColor=#F58534;gradientColor=none;" parent="EsA31SXm8HNPPJr8_wRz-9" vertex="1">
          <mxGeometry x="24.25" y="40" width="69" height="72" as="geometry" />
        </mxCell>
        <mxCell id="EsA31SXm8HNPPJr8_wRz-32" value="Private subnet-1" style="points=[[0,0],[0.25,0],[0.5,0],[0.75,0],[1,0],[1,0.25],[1,0.5],[1,0.75],[1,1],[0.75,1],[0.5,1],[0.25,1],[0,1],[0,0.75],[0,0.5],[0,0.25]];outlineConnect=0;gradientColor=none;html=1;whiteSpace=wrap;fontSize=12;fontStyle=0;container=1;pointerEvents=0;collapsible=0;recursiveResize=0;shape=mxgraph.aws4.group;grIcon=mxgraph.aws4.group_security_group;grStroke=0;strokeColor=#00A4A6;fillColor=#E6F6F7;verticalAlign=top;align=left;spacingLeft=30;fontColor=#147EBA;dashed=0;" parent="EsA31SXm8HNPPJr8_wRz-2" vertex="1">
          <mxGeometry x="50" y="280" width="130" height="130" as="geometry" />
        </mxCell>
        <mxCell id="EsA31SXm8HNPPJr8_wRz-31" value="Private subnet-2" style="points=[[0,0],[0.25,0],[0.5,0],[0.75,0],[1,0],[1,0.25],[1,0.5],[1,0.75],[1,1],[0.75,1],[0.5,1],[0.25,1],[0,1],[0,0.75],[0,0.5],[0,0.25]];outlineConnect=0;gradientColor=none;html=1;whiteSpace=wrap;fontSize=12;fontStyle=0;container=1;pointerEvents=0;collapsible=0;recursiveResize=0;shape=mxgraph.aws4.group;grIcon=mxgraph.aws4.group_security_group;grStroke=0;strokeColor=#00A4A6;fillColor=#E6F6F7;verticalAlign=top;align=left;spacingLeft=30;fontColor=#147EBA;dashed=0;" parent="EsA31SXm8HNPPJr8_wRz-2" vertex="1">
          <mxGeometry x="435" y="270" width="127.5" height="130" as="geometry" />
        </mxCell>
        <mxCell id="EsA31SXm8HNPPJr8_wRz-34" value="CIDR = 10.0.0.0/24" style="whiteSpace=wrap;html=1;" parent="EsA31SXm8HNPPJr8_wRz-2" vertex="1">
          <mxGeometry x="190" y="90" width="80" height="30" as="geometry" />
        </mxCell>
        <mxCell id="EsA31SXm8HNPPJr8_wRz-35" value="CIDR = 10.0.1.0/24" style="whiteSpace=wrap;html=1;" parent="EsA31SXm8HNPPJr8_wRz-2" vertex="1">
          <mxGeometry x="330" y="90" width="80" height="30" as="geometry" />
        </mxCell>
        <mxCell id="EsA31SXm8HNPPJr8_wRz-36" value="CIDR = 10.0.2.0/24" style="whiteSpace=wrap;html=1;" parent="EsA31SXm8HNPPJr8_wRz-2" vertex="1">
          <mxGeometry x="190" y="270" width="80" height="30" as="geometry" />
        </mxCell>
        <mxCell id="EsA31SXm8HNPPJr8_wRz-37" value="CIDR = 10.0.3.0/24" style="whiteSpace=wrap;html=1;" parent="EsA31SXm8HNPPJr8_wRz-2" vertex="1">
          <mxGeometry x="320" y="270" width="80" height="30" as="geometry" />
        </mxCell>
        <mxCell id="EsA31SXm8HNPPJr8_wRz-41" style="edgeStyle=orthogonalEdgeStyle;rounded=0;orthogonalLoop=1;jettySize=auto;html=1;entryX=0.5;entryY=1;entryDx=0;entryDy=0;entryPerimeter=0;" parent="EsA31SXm8HNPPJr8_wRz-2" source="EsA31SXm8HNPPJr8_wRz-32" target="EsA31SXm8HNPPJr8_wRz-10" edge="1">
          <mxGeometry relative="1" as="geometry" />
        </mxCell>
        <mxCell id="EsA31SXm8HNPPJr8_wRz-42" style="edgeStyle=orthogonalEdgeStyle;rounded=0;orthogonalLoop=1;jettySize=auto;html=1;entryX=0.5;entryY=1;entryDx=0;entryDy=0;entryPerimeter=0;" parent="EsA31SXm8HNPPJr8_wRz-2" source="EsA31SXm8HNPPJr8_wRz-31" target="EsA31SXm8HNPPJr8_wRz-11" edge="1">
          <mxGeometry relative="1" as="geometry" />
        </mxCell>
        <mxCell id="EsA31SXm8HNPPJr8_wRz-86" style="edgeStyle=orthogonalEdgeStyle;rounded=0;orthogonalLoop=1;jettySize=auto;html=1;entryX=0.56;entryY=0.238;entryDx=0;entryDy=0;entryPerimeter=0;" parent="EsA31SXm8HNPPJr8_wRz-2" source="EsA31SXm8HNPPJr8_wRz-34" target="EsA31SXm8HNPPJr8_wRz-6" edge="1">
          <mxGeometry relative="1" as="geometry" />
        </mxCell>
        <mxCell id="EsA31SXm8HNPPJr8_wRz-87" style="edgeStyle=orthogonalEdgeStyle;rounded=0;orthogonalLoop=1;jettySize=auto;html=1;entryX=0;entryY=0.5;entryDx=0;entryDy=0;" parent="EsA31SXm8HNPPJr8_wRz-2" source="EsA31SXm8HNPPJr8_wRz-35" target="EsA31SXm8HNPPJr8_wRz-9" edge="1">
          <mxGeometry relative="1" as="geometry">
            <Array as="points">
              <mxPoint x="370" y="145" />
            </Array>
          </mxGeometry>
        </mxCell>
        <mxCell id="EsA31SXm8HNPPJr8_wRz-90" style="edgeStyle=orthogonalEdgeStyle;rounded=0;orthogonalLoop=1;jettySize=auto;html=1;exitX=0.5;exitY=1;exitDx=0;exitDy=0;" parent="EsA31SXm8HNPPJr8_wRz-2" source="EsA31SXm8HNPPJr8_wRz-37" target="EsA31SXm8HNPPJr8_wRz-31" edge="1">
          <mxGeometry relative="1" as="geometry">
            <Array as="points">
              <mxPoint x="360" y="330" />
            </Array>
          </mxGeometry>
        </mxCell>
        <mxCell id="EsA31SXm8HNPPJr8_wRz-91" style="edgeStyle=orthogonalEdgeStyle;rounded=0;orthogonalLoop=1;jettySize=auto;html=1;entryX=0.6;entryY=0.714;entryDx=0;entryDy=0;entryPerimeter=0;exitX=0.5;exitY=1;exitDx=0;exitDy=0;" parent="EsA31SXm8HNPPJr8_wRz-2" source="EsA31SXm8HNPPJr8_wRz-36" target="EsA31SXm8HNPPJr8_wRz-6" edge="1">
          <mxGeometry relative="1" as="geometry">
            <Array as="points">
              <mxPoint x="230" y="340" />
            </Array>
          </mxGeometry>
        </mxCell>
        <mxCell id="EsA31SXm8HNPPJr8_wRz-12" value="Workload Account(spoke)" style="points=[[0,0],[0.25,0],[0.5,0],[0.75,0],[1,0],[1,0.25],[1,0.5],[1,0.75],[1,1],[0.75,1],[0.5,1],[0.25,1],[0,1],[0,0.75],[0,0.5],[0,0.25]];outlineConnect=0;gradientColor=none;html=1;whiteSpace=wrap;fontSize=12;fontStyle=0;container=1;pointerEvents=0;collapsible=0;recursiveResize=0;shape=mxgraph.aws4.group;grIcon=mxgraph.aws4.group_account;strokeColor=#CD2264;fillColor=none;verticalAlign=top;align=left;spacingLeft=30;fontColor=#CD2264;dashed=0;" parent="1" vertex="1">
          <mxGeometry x="160" y="590" width="680" height="510" as="geometry" />
        </mxCell>
        <mxCell id="EsA31SXm8HNPPJr8_wRz-16" value="&amp;nbsp;VPC(spoke)" style="points=[[0,0],[0.25,0],[0.5,0],[0.75,0],[1,0],[1,0.25],[1,0.5],[1,0.75],[1,1],[0.75,1],[0.5,1],[0.25,1],[0,1],[0,0.75],[0,0.5],[0,0.25]];outlineConnect=0;gradientColor=none;html=1;whiteSpace=wrap;fontSize=12;fontStyle=0;container=1;pointerEvents=0;collapsible=0;recursiveResize=0;shape=mxgraph.aws4.group;grIcon=mxgraph.aws4.group_vpc2;strokeColor=#8C4FFF;fillColor=none;verticalAlign=top;align=left;spacingLeft=30;fontColor=#AAB7B8;dashed=0;" parent="EsA31SXm8HNPPJr8_wRz-12" vertex="1">
          <mxGeometry x="20" y="40" width="640" height="430" as="geometry" />
        </mxCell>
        <mxCell id="EsA31SXm8HNPPJr8_wRz-24" value="Availability Zone" style="fillColor=none;strokeColor=#147EBA;dashed=1;verticalAlign=top;fontStyle=0;fontColor=#147EBA;whiteSpace=wrap;html=1;" parent="EsA31SXm8HNPPJr8_wRz-16" vertex="1">
          <mxGeometry x="20" y="40" width="260" height="360" as="geometry" />
        </mxCell>
        <mxCell id="EsA31SXm8HNPPJr8_wRz-64" style="edgeStyle=orthogonalEdgeStyle;rounded=0;orthogonalLoop=1;jettySize=auto;html=1;entryX=0.5;entryY=0;entryDx=0;entryDy=0;" parent="EsA31SXm8HNPPJr8_wRz-16" source="EsA31SXm8HNPPJr8_wRz-21" target="EsA31SXm8HNPPJr8_wRz-58" edge="1">
          <mxGeometry relative="1" as="geometry" />
        </mxCell>
        <mxCell id="EsA31SXm8HNPPJr8_wRz-21" value="Private subnet-1" style="points=[[0,0],[0.25,0],[0.5,0],[0.75,0],[1,0],[1,0.25],[1,0.5],[1,0.75],[1,1],[0.75,1],[0.5,1],[0.25,1],[0,1],[0,0.75],[0,0.5],[0,0.25]];outlineConnect=0;gradientColor=none;html=1;whiteSpace=wrap;fontSize=12;fontStyle=0;container=1;pointerEvents=0;collapsible=0;recursiveResize=0;shape=mxgraph.aws4.group;grIcon=mxgraph.aws4.group_security_group;grStroke=0;strokeColor=#00A4A6;fillColor=#E6F6F7;verticalAlign=top;align=left;spacingLeft=30;fontColor=#147EBA;dashed=0;" parent="EsA31SXm8HNPPJr8_wRz-16" vertex="1">
          <mxGeometry x="40" y="80" width="140" height="160" as="geometry" />
        </mxCell>
        <mxCell id="EsA31SXm8HNPPJr8_wRz-47" value="" style="outlineConnect=0;dashed=0;verticalLabelPosition=bottom;verticalAlign=top;align=center;html=1;shape=mxgraph.aws3.ec2;fillColor=#F58534;gradientColor=none;" parent="EsA31SXm8HNPPJr8_wRz-21" vertex="1">
          <mxGeometry x="21.75" y="40" width="76.5" height="93" as="geometry" />
        </mxCell>
        <mxCell id="EsA31SXm8HNPPJr8_wRz-57" value="Ec2 instance - App" style="text;html=1;align=center;verticalAlign=middle;resizable=0;points=[];autosize=1;strokeColor=none;fillColor=none;" parent="EsA31SXm8HNPPJr8_wRz-21" vertex="1">
          <mxGeometry x="5" y="130" width="120" height="30" as="geometry" />
        </mxCell>
        <mxCell id="EsA31SXm8HNPPJr8_wRz-44" value="Availability Zone" style="fillColor=none;strokeColor=#147EBA;dashed=1;verticalAlign=top;fontStyle=0;fontColor=#147EBA;whiteSpace=wrap;html=1;" parent="EsA31SXm8HNPPJr8_wRz-16" vertex="1">
          <mxGeometry x="360" y="40" width="260" height="360" as="geometry" />
        </mxCell>
        <mxCell id="EsA31SXm8HNPPJr8_wRz-45" value="Private subnet-2" style="points=[[0,0],[0.25,0],[0.5,0],[0.75,0],[1,0],[1,0.25],[1,0.5],[1,0.75],[1,1],[0.75,1],[0.5,1],[0.25,1],[0,1],[0,0.75],[0,0.5],[0,0.25]];outlineConnect=0;gradientColor=none;html=1;whiteSpace=wrap;fontSize=12;fontStyle=0;container=1;pointerEvents=0;collapsible=0;recursiveResize=0;shape=mxgraph.aws4.group;grIcon=mxgraph.aws4.group_security_group;grStroke=0;strokeColor=#00A4A6;fillColor=#E6F6F7;verticalAlign=top;align=left;spacingLeft=30;fontColor=#147EBA;dashed=0;" parent="EsA31SXm8HNPPJr8_wRz-16" vertex="1">
          <mxGeometry x="460" y="80" width="140" height="151.5" as="geometry" />
        </mxCell>
        <mxCell id="EsA31SXm8HNPPJr8_wRz-56" value="Ec2 instance - App" style="text;html=1;align=center;verticalAlign=middle;resizable=0;points=[];autosize=1;strokeColor=none;fillColor=none;" parent="EsA31SXm8HNPPJr8_wRz-45" vertex="1">
          <mxGeometry x="10" y="121.5" width="120" height="30" as="geometry" />
        </mxCell>
        <mxCell id="EsA31SXm8HNPPJr8_wRz-46" value="" style="outlineConnect=0;dashed=0;verticalLabelPosition=bottom;verticalAlign=top;align=center;html=1;shape=mxgraph.aws3.ec2;fillColor=#F58534;gradientColor=none;" parent="EsA31SXm8HNPPJr8_wRz-16" vertex="1">
          <mxGeometry x="491.75" y="108.5" width="76.5" height="93" as="geometry" />
        </mxCell>
        <mxCell id="EsA31SXm8HNPPJr8_wRz-58" value="SG: App-SG" style="whiteSpace=wrap;html=1;" parent="EsA31SXm8HNPPJr8_wRz-16" vertex="1">
          <mxGeometry x="60" y="310" width="120" height="60" as="geometry" />
        </mxCell>
        <mxCell id="EsA31SXm8HNPPJr8_wRz-59" value="SG: App-SG" style="whiteSpace=wrap;html=1;" parent="EsA31SXm8HNPPJr8_wRz-16" vertex="1">
          <mxGeometry x="470" y="310" width="120" height="60" as="geometry" />
        </mxCell>
        <mxCell id="EsA31SXm8HNPPJr8_wRz-62" style="edgeStyle=orthogonalEdgeStyle;rounded=0;orthogonalLoop=1;jettySize=auto;html=1;entryX=0.5;entryY=0;entryDx=0;entryDy=0;" parent="EsA31SXm8HNPPJr8_wRz-16" source="EsA31SXm8HNPPJr8_wRz-56" target="EsA31SXm8HNPPJr8_wRz-59" edge="1">
          <mxGeometry relative="1" as="geometry" />
        </mxCell>
        <mxCell id="EsA31SXm8HNPPJr8_wRz-97" value="CIDR = 10.0.0.0/24" style="whiteSpace=wrap;html=1;" parent="EsA31SXm8HNPPJr8_wRz-16" vertex="1">
          <mxGeometry x="190" y="78.5" width="80" height="30" as="geometry" />
        </mxCell>
        <mxCell id="EsA31SXm8HNPPJr8_wRz-113" value="CIDR = 10.0.0.0/24" style="whiteSpace=wrap;html=1;" parent="EsA31SXm8HNPPJr8_wRz-16" vertex="1">
          <mxGeometry x="370" y="80" width="80" height="30" as="geometry" />
        </mxCell>
        <mxCell id="EsA31SXm8HNPPJr8_wRz-114" style="edgeStyle=orthogonalEdgeStyle;rounded=0;orthogonalLoop=1;jettySize=auto;html=1;entryX=0.615;entryY=0.25;entryDx=0;entryDy=0;entryPerimeter=0;" parent="EsA31SXm8HNPPJr8_wRz-16" source="EsA31SXm8HNPPJr8_wRz-97" target="EsA31SXm8HNPPJr8_wRz-24" edge="1">
          <mxGeometry relative="1" as="geometry" />
        </mxCell>
        <mxCell id="EsA31SXm8HNPPJr8_wRz-115" style="edgeStyle=orthogonalEdgeStyle;rounded=0;orthogonalLoop=1;jettySize=auto;html=1;entryX=0.385;entryY=0.25;entryDx=0;entryDy=0;entryPerimeter=0;" parent="EsA31SXm8HNPPJr8_wRz-16" source="EsA31SXm8HNPPJr8_wRz-113" target="EsA31SXm8HNPPJr8_wRz-44" edge="1">
          <mxGeometry relative="1" as="geometry" />
        </mxCell>
        <mxCell id="EsA31SXm8HNPPJr8_wRz-48" style="edgeStyle=orthogonalEdgeStyle;rounded=0;orthogonalLoop=1;jettySize=auto;html=1;entryX=0;entryY=0.5;entryDx=0;entryDy=0;entryPerimeter=0;" parent="1" source="EsA31SXm8HNPPJr8_wRz-47" target="EsA31SXm8HNPPJr8_wRz-10" edge="1">
          <mxGeometry relative="1" as="geometry">
            <Array as="points">
              <mxPoint x="130" y="800" />
              <mxPoint x="130" y="106" />
            </Array>
          </mxGeometry>
        </mxCell>
        <mxCell id="EsA31SXm8HNPPJr8_wRz-51" value="VPC Peering" style="text;html=1;align=center;verticalAlign=middle;resizable=0;points=[];autosize=1;strokeColor=none;fillColor=none;rotation=90;" parent="1" vertex="1">
          <mxGeometry x="470" y="520" width="90" height="30" as="geometry" />
        </mxCell>
        <mxCell id="EsA31SXm8HNPPJr8_wRz-55" style="edgeStyle=orthogonalEdgeStyle;rounded=0;orthogonalLoop=1;jettySize=auto;html=1;entryX=1;entryY=0.5;entryDx=0;entryDy=0;entryPerimeter=0;" parent="1" source="EsA31SXm8HNPPJr8_wRz-46" target="EsA31SXm8HNPPJr8_wRz-11" edge="1">
          <mxGeometry relative="1" as="geometry">
            <Array as="points">
              <mxPoint x="900" y="785" />
              <mxPoint x="900" y="106" />
            </Array>
          </mxGeometry>
        </mxCell>
        <mxCell id="EsA31SXm8HNPPJr8_wRz-68" value="Log Account" style="points=[[0,0],[0.25,0],[0.5,0],[0.75,0],[1,0],[1,0.25],[1,0.5],[1,0.75],[1,1],[0.75,1],[0.5,1],[0.25,1],[0,1],[0,0.75],[0,0.5],[0,0.25]];outlineConnect=0;gradientColor=none;html=1;whiteSpace=wrap;fontSize=12;fontStyle=0;container=1;pointerEvents=0;collapsible=0;recursiveResize=0;shape=mxgraph.aws4.group;grIcon=mxgraph.aws4.group_account;strokeColor=#CD2264;fillColor=none;verticalAlign=top;align=left;spacingLeft=30;fontColor=#CD2264;dashed=0;" parent="1" vertex="1">
          <mxGeometry x="-420" y="650" width="460" height="480" as="geometry" />
        </mxCell>
        <mxCell id="EsA31SXm8HNPPJr8_wRz-71" value="VPC" style="points=[[0,0],[0.25,0],[0.5,0],[0.75,0],[1,0],[1,0.25],[1,0.5],[1,0.75],[1,1],[0.75,1],[0.5,1],[0.25,1],[0,1],[0,0.75],[0,0.5],[0,0.25]];outlineConnect=0;gradientColor=none;html=1;whiteSpace=wrap;fontSize=12;fontStyle=0;container=1;pointerEvents=0;collapsible=0;recursiveResize=0;shape=mxgraph.aws4.group;grIcon=mxgraph.aws4.group_vpc2;strokeColor=#8C4FFF;fillColor=none;verticalAlign=top;align=left;spacingLeft=30;fontColor=#AAB7B8;dashed=0;" parent="EsA31SXm8HNPPJr8_wRz-68" vertex="1">
          <mxGeometry x="50" y="60" width="370" height="380" as="geometry" />
        </mxCell>
        <mxCell id="EsA31SXm8HNPPJr8_wRz-73" value="subnet for Loging" style="points=[[0,0],[0.25,0],[0.5,0],[0.75,0],[1,0],[1,0.25],[1,0.5],[1,0.75],[1,1],[0.75,1],[0.5,1],[0.25,1],[0,1],[0,0.75],[0,0.5],[0,0.25]];outlineConnect=0;gradientColor=none;html=1;whiteSpace=wrap;fontSize=12;fontStyle=0;container=1;pointerEvents=0;collapsible=0;recursiveResize=0;shape=mxgraph.aws4.group;grIcon=mxgraph.aws4.group_security_group;grStroke=0;strokeColor=#00A4A6;fillColor=#E6F6F7;verticalAlign=top;align=left;spacingLeft=30;fontColor=#147EBA;dashed=0;" parent="EsA31SXm8HNPPJr8_wRz-71" vertex="1">
          <mxGeometry x="50" y="50" width="170" height="160" as="geometry" />
        </mxCell>
        <mxCell id="EsA31SXm8HNPPJr8_wRz-77" value="Amazon CloudWatch" style="sketch=0;outlineConnect=0;fontColor=#232F3E;gradientColor=none;strokeColor=#ffffff;fillColor=#232F3E;dashed=0;verticalLabelPosition=middle;verticalAlign=bottom;align=center;html=1;whiteSpace=wrap;fontSize=10;fontStyle=1;spacing=3;shape=mxgraph.aws4.productIcon;prIcon=mxgraph.aws4.cloudwatch;" parent="EsA31SXm8HNPPJr8_wRz-73" vertex="1">
          <mxGeometry x="45" y="40" width="80" height="110" as="geometry" />
        </mxCell>
        <mxCell id="EsA31SXm8HNPPJr8_wRz-82" style="edgeStyle=orthogonalEdgeStyle;rounded=0;orthogonalLoop=1;jettySize=auto;html=1;entryX=1;entryY=0.5;entryDx=0;entryDy=0;exitX=0.5;exitY=1;exitDx=0;exitDy=0;" parent="EsA31SXm8HNPPJr8_wRz-71" source="EsA31SXm8HNPPJr8_wRz-74" target="EsA31SXm8HNPPJr8_wRz-73" edge="1">
          <mxGeometry relative="1" as="geometry" />
        </mxCell>
        <mxCell id="EsA31SXm8HNPPJr8_wRz-74" value="CIDR = 10.3.1.0/24" style="whiteSpace=wrap;html=1;" parent="EsA31SXm8HNPPJr8_wRz-71" vertex="1">
          <mxGeometry x="260" y="50" width="80" height="30" as="geometry" />
        </mxCell>
        <mxCell id="EsA31SXm8HNPPJr8_wRz-95" style="edgeStyle=orthogonalEdgeStyle;rounded=0;orthogonalLoop=1;jettySize=auto;html=1;startArrow=classic;startFill=1;dashed=1;" parent="1" source="EsA31SXm8HNPPJr8_wRz-70" edge="1">
          <mxGeometry relative="1" as="geometry">
            <mxPoint x="1120" y="640" as="sourcePoint" />
            <mxPoint x="820" y="55" as="targetPoint" />
            <Array as="points">
              <mxPoint x="1120" y="55" />
            </Array>
          </mxGeometry>
        </mxCell>
        <mxCell id="EsA31SXm8HNPPJr8_wRz-69" value="Security Account" style="points=[[0,0],[0.25,0],[0.5,0],[0.75,0],[1,0],[1,0.25],[1,0.5],[1,0.75],[1,1],[0.75,1],[0.5,1],[0.25,1],[0,1],[0,0.75],[0,0.5],[0,0.25]];outlineConnect=0;gradientColor=none;html=1;whiteSpace=wrap;fontSize=12;fontStyle=0;container=1;pointerEvents=0;collapsible=0;recursiveResize=0;shape=mxgraph.aws4.group;grIcon=mxgraph.aws4.group_account;strokeColor=#CD2264;fillColor=none;verticalAlign=top;align=left;spacingLeft=30;fontColor=#CD2264;dashed=0;" parent="1" vertex="1">
          <mxGeometry x="990" y="640" width="440" height="480" as="geometry" />
        </mxCell>
        <mxCell id="EsA31SXm8HNPPJr8_wRz-70" value="VPC" style="points=[[0,0],[0.25,0],[0.5,0],[0.75,0],[1,0],[1,0.25],[1,0.5],[1,0.75],[1,1],[0.75,1],[0.5,1],[0.25,1],[0,1],[0,0.75],[0,0.5],[0,0.25]];outlineConnect=0;gradientColor=none;html=1;whiteSpace=wrap;fontSize=12;fontStyle=0;container=1;pointerEvents=0;collapsible=0;recursiveResize=0;shape=mxgraph.aws4.group;grIcon=mxgraph.aws4.group_vpc2;strokeColor=#8C4FFF;fillColor=none;verticalAlign=top;align=left;spacingLeft=30;fontColor=#AAB7B8;dashed=0;" parent="EsA31SXm8HNPPJr8_wRz-69" vertex="1">
          <mxGeometry x="30" y="70" width="361.75" height="360" as="geometry" />
        </mxCell>
        <mxCell id="EsA31SXm8HNPPJr8_wRz-72" value="subnet for security" style="points=[[0,0],[0.25,0],[0.5,0],[0.75,0],[1,0],[1,0.25],[1,0.5],[1,0.75],[1,1],[0.75,1],[0.5,1],[0.25,1],[0,1],[0,0.75],[0,0.5],[0,0.25]];outlineConnect=0;gradientColor=none;html=1;whiteSpace=wrap;fontSize=12;fontStyle=0;container=1;pointerEvents=0;collapsible=0;recursiveResize=0;shape=mxgraph.aws4.group;grIcon=mxgraph.aws4.group_security_group;grStroke=0;strokeColor=#00A4A6;fillColor=#E6F6F7;verticalAlign=top;align=left;spacingLeft=30;fontColor=#147EBA;dashed=0;" parent="EsA31SXm8HNPPJr8_wRz-70" vertex="1">
          <mxGeometry x="150" y="40" width="190" height="280" as="geometry" />
        </mxCell>
        <mxCell id="EsA31SXm8HNPPJr8_wRz-80" value="Amazon GuardDuty" style="sketch=0;outlineConnect=0;fontColor=#232F3E;gradientColor=none;strokeColor=#ffffff;fillColor=#232F3E;dashed=0;verticalLabelPosition=middle;verticalAlign=bottom;align=center;html=1;whiteSpace=wrap;fontSize=10;fontStyle=1;spacing=3;shape=mxgraph.aws4.productIcon;prIcon=mxgraph.aws4.guardduty;" parent="EsA31SXm8HNPPJr8_wRz-72" vertex="1">
          <mxGeometry x="55" y="160" width="80" height="110" as="geometry" />
        </mxCell>
        <mxCell id="EsA31SXm8HNPPJr8_wRz-134" value="" style="image;aspect=fixed;html=1;points=[];align=center;fontSize=12;image=img/lib/azure2/networking/Network_Security_Groups.svg;" parent="EsA31SXm8HNPPJr8_wRz-72" vertex="1">
          <mxGeometry x="55" y="43.5" width="56.00000000000001" height="68" as="geometry" />
        </mxCell>
        <mxCell id="EsA31SXm8HNPPJr8_wRz-83" style="edgeStyle=orthogonalEdgeStyle;rounded=0;orthogonalLoop=1;jettySize=auto;html=1;exitX=0.5;exitY=1;exitDx=0;exitDy=0;" parent="EsA31SXm8HNPPJr8_wRz-70" source="EsA31SXm8HNPPJr8_wRz-75" target="EsA31SXm8HNPPJr8_wRz-72" edge="1">
          <mxGeometry relative="1" as="geometry">
            <Array as="points">
              <mxPoint x="72" y="100" />
            </Array>
          </mxGeometry>
        </mxCell>
        <mxCell id="EsA31SXm8HNPPJr8_wRz-75" value="CIDR = 10.4.1.0/24" style="whiteSpace=wrap;html=1;" parent="EsA31SXm8HNPPJr8_wRz-70" vertex="1">
          <mxGeometry x="31.75" y="40" width="80" height="30" as="geometry" />
        </mxCell>
        <mxCell id="EsA31SXm8HNPPJr8_wRz-81" style="edgeStyle=orthogonalEdgeStyle;rounded=0;orthogonalLoop=1;jettySize=auto;html=1;startArrow=classic;startFill=1;dashed=1;" parent="1" source="EsA31SXm8HNPPJr8_wRz-2" edge="1">
          <mxGeometry relative="1" as="geometry">
            <mxPoint x="495" y="630" as="targetPoint" />
          </mxGeometry>
        </mxCell>
        <mxCell id="EsA31SXm8HNPPJr8_wRz-93" value="VPC Peering" style="text;html=1;align=center;verticalAlign=middle;resizable=0;points=[];autosize=1;strokeColor=none;fillColor=none;rotation=90;" parent="1" vertex="1">
          <mxGeometry x="-170" y="380" width="90" height="30" as="geometry" />
        </mxCell>
        <mxCell id="EsA31SXm8HNPPJr8_wRz-96" value="VPC Peering" style="text;html=1;align=center;verticalAlign=middle;resizable=0;points=[];autosize=1;strokeColor=none;fillColor=none;rotation=90;" parent="1" vertex="1">
          <mxGeometry x="1085" y="350" width="90" height="30" as="geometry" />
        </mxCell>
        <mxCell id="EsA31SXm8HNPPJr8_wRz-117" style="edgeStyle=orthogonalEdgeStyle;rounded=0;orthogonalLoop=1;jettySize=auto;html=1;startArrow=classic;startFill=1;" parent="1" source="EsA31SXm8HNPPJr8_wRz-10" target="EsA31SXm8HNPPJr8_wRz-40" edge="1">
          <mxGeometry relative="1" as="geometry">
            <Array as="points">
              <mxPoint x="290" y="-70" />
            </Array>
          </mxGeometry>
        </mxCell>
        <mxCell id="EsA31SXm8HNPPJr8_wRz-118" style="edgeStyle=orthogonalEdgeStyle;rounded=0;orthogonalLoop=1;jettySize=auto;html=1;startArrow=classic;startFill=1;exitX=0.5;exitY=0;exitDx=0;exitDy=0;exitPerimeter=0;" parent="1" source="EsA31SXm8HNPPJr8_wRz-11" target="EsA31SXm8HNPPJr8_wRz-40" edge="1">
          <mxGeometry relative="1" as="geometry">
            <mxPoint x="680" y="-20" as="sourcePoint" />
            <Array as="points">
              <mxPoint x="679" y="-70" />
            </Array>
          </mxGeometry>
        </mxCell>
        <mxCell id="EsA31SXm8HNPPJr8_wRz-130" style="edgeStyle=orthogonalEdgeStyle;rounded=0;orthogonalLoop=1;jettySize=auto;html=1;startArrow=classic;startFill=1;" parent="1" source="EsA31SXm8HNPPJr8_wRz-119" target="EsA31SXm8HNPPJr8_wRz-40" edge="1">
          <mxGeometry relative="1" as="geometry" />
        </mxCell>
        <mxCell id="EsA31SXm8HNPPJr8_wRz-119" value="" style="image;aspect=fixed;perimeter=ellipsePerimeter;html=1;align=center;shadow=0;dashed=0;spacingTop=3;image=img/lib/active_directory/internet_globe.svg;" parent="1" vertex="1">
          <mxGeometry x="445" y="-230" width="50" height="50" as="geometry" />
        </mxCell>
        <mxCell id="EsA31SXm8HNPPJr8_wRz-121" value="Log traffic flow" style="text;html=1;align=center;verticalAlign=middle;resizable=0;points=[];autosize=1;strokeColor=none;fillColor=none;" parent="1" vertex="1">
          <mxGeometry x="50" y="940" width="100" height="30" as="geometry" />
        </mxCell>
        <mxCell id="EsA31SXm8HNPPJr8_wRz-124" style="edgeStyle=orthogonalEdgeStyle;rounded=0;orthogonalLoop=1;jettySize=auto;html=1;" parent="1" source="EsA31SXm8HNPPJr8_wRz-16" target="EsA31SXm8HNPPJr8_wRz-71" edge="1">
          <mxGeometry relative="1" as="geometry">
            <Array as="points">
              <mxPoint x="100" y="970" />
              <mxPoint x="100" y="970" />
            </Array>
          </mxGeometry>
        </mxCell>
        <mxCell id="EsA31SXm8HNPPJr8_wRz-125" value="CloudWatch Logs" style="text;html=1;align=center;verticalAlign=middle;resizable=0;points=[];autosize=1;strokeColor=none;fillColor=none;" parent="1" vertex="1">
          <mxGeometry x="40" y="970" width="120" height="30" as="geometry" />
        </mxCell>
        <mxCell id="EsA31SXm8HNPPJr8_wRz-128" style="edgeStyle=orthogonalEdgeStyle;rounded=0;orthogonalLoop=1;jettySize=auto;html=1;" parent="1" source="EsA31SXm8HNPPJr8_wRz-16" target="EsA31SXm8HNPPJr8_wRz-70" edge="1">
          <mxGeometry relative="1" as="geometry">
            <Array as="points">
              <mxPoint x="930" y="930" />
              <mxPoint x="930" y="930" />
            </Array>
          </mxGeometry>
        </mxCell>
        <mxCell id="EsA31SXm8HNPPJr8_wRz-129" value="Security management&lt;div&gt;Traffic flow&lt;/div&gt;" style="text;html=1;align=center;verticalAlign=middle;resizable=0;points=[];autosize=1;strokeColor=none;fillColor=none;" parent="1" vertex="1">
          <mxGeometry x="850" y="890" width="140" height="40" as="geometry" />
        </mxCell>
        <mxCell id="EsA31SXm8HNPPJr8_wRz-131" value="Internet" style="text;html=1;align=center;verticalAlign=middle;resizable=0;points=[];autosize=1;strokeColor=none;fillColor=none;" parent="1" vertex="1">
          <mxGeometry x="440" y="-260" width="60" height="30" as="geometry" />
        </mxCell>
        <mxCell id="EsA31SXm8HNPPJr8_wRz-132" value="Outbound traffic" style="text;html=1;align=center;verticalAlign=middle;resizable=0;points=[];autosize=1;strokeColor=none;fillColor=none;rotation=270;" parent="1" vertex="1">
          <mxGeometry x="60" y="500" width="110" height="30" as="geometry" />
        </mxCell>
        <mxCell id="EsA31SXm8HNPPJr8_wRz-133" value="Outbound traffic" style="text;html=1;align=center;verticalAlign=middle;resizable=0;points=[];autosize=1;strokeColor=none;fillColor=none;rotation=90;" parent="1" vertex="1">
          <mxGeometry x="860" y="490" width="110" height="30" as="geometry" />
        </mxCell>
        <mxCell id="EsA31SXm8HNPPJr8_wRz-135" style="edgeStyle=orthogonalEdgeStyle;rounded=0;orthogonalLoop=1;jettySize=auto;html=1;exitX=0;exitY=0.79;exitDx=0;exitDy=0;exitPerimeter=0;entryX=1;entryY=0.75;entryDx=0;entryDy=0;" parent="1" source="EsA31SXm8HNPPJr8_wRz-47" target="EsA31SXm8HNPPJr8_wRz-73" edge="1">
          <mxGeometry relative="1" as="geometry">
            <Array as="points">
              <mxPoint x="140" y="824" />
              <mxPoint x="140" y="880" />
            </Array>
          </mxGeometry>
        </mxCell>
      </root>
    </mxGraphModel>
  </diagram>
</mxfile>
